<?xml version="1.0" standalone="no"?>
<!DOCTYPE svg PUBLIC "-//W3C//DTD SVG 20010904//EN"
 "http://www.w3.org/TR/2001/REC-SVG-20010904/DTD/svg10.dtd">
<svg version="1.0" xmlns="http://www.w3.org/2000/svg"
 width="500.000000pt" height="500.000000pt" viewBox="0 0 500.000000 500.000000"
 preserveAspectRatio="xMidYMid meet">

<g transform="translate(0.000000,500.000000) scale(0.100000,-0.100000)"
fill="#000000" stroke="none">
<path d="M2290 4216 c-231 -37 -432 -113 -609 -231 -356 -237 -589 -624 -631
-1048 -29 -292 57 -629 223 -877 174 -260 393 -440 670 -551 75 -31 239 -77
297 -85 l50 -7 0 51 0 51 -37 7 c-166 28 -379 115 -530 216 -87 58 -248 213
-310 298 -175 240 -266 509 -266 785 0 336 136 650 392 906 207 207 447 330
726 374 85 14 147 16 280 12 238 -8 347 -34 550 -131 394 -190 677 -577 735
-1004 24 -172 -1 -407 -60 -582 -103 -301 -365 -602 -649 -745 -85 -42 -226
-93 -322 -116 l-89 -21 0 -50 0 -50 46 7 c122 18 276 71 427 146 297 148 574
469 682 791 55 165 69 258 69 468 0 186 -2 201 -31 310 -74 278 -193 484 -393
680 -198 194 -438 321 -718 380 -126 27 -381 35 -502 16z"/>
<path d="M2165 3978 c-52 -14 -120 -61 -141 -97 -15 -26 -21 -28 -55 -24 -82
11 -183 -35 -208 -95 -8 -20 -22 -32 -40 -35 -64 -13 -141 -119 -141 -194 0
-25 -4 -33 -17 -33 -30 0 -120 -58 -147 -93 -37 -49 -56 -111 -56 -184 0 -63
-2 -67 -39 -105 -49 -49 -63 -90 -66 -192 -1 -45 -5 -99 -10 -121 -11 -61 9
-120 60 -174 36 -38 42 -50 33 -65 -6 -11 -8 -52 -6 -96 4 -61 10 -87 32 -123
41 -71 135 -127 211 -127 32 0 33 0 28 -44 -3 -25 2 -67 12 -101 39 -137 137
-215 267 -215 45 0 49 -2 62 -34 8 -19 33 -47 58 -64 122 -84 277 -64 303 40
10 38 -13 45 -56 19 -63 -39 -151 -22 -202 38 l-27 33 41 58 c22 32 51 68 65
81 13 12 24 28 24 35 0 6 12 14 28 17 24 5 39 -7 137 -103 l110 -110 -3 -327
c-1 -181 -2 -335 -2 -345 0 -24 -163 -202 -203 -221 -29 -14 -69 -17 -234 -17
-181 0 -201 -2 -216 -18 -22 -24 -21 -35 3 -57 18 -17 58 -17 725 -13 735 5
735 5 735 47 0 38 -18 41 -220 41 l-196 0 -64 43 c-43 27 -82 65 -116 110
l-51 68 -7 252 c-4 139 -11 288 -15 332 l-7 79 117 119 c115 117 117 118 153
112 25 -5 36 -12 36 -25 0 -10 26 -51 57 -90 54 -70 56 -74 42 -98 -22 -39
-75 -66 -131 -66 -41 0 -53 5 -81 32 -18 18 -41 32 -51 32 -15 0 -17 -5 -12
-32 8 -39 49 -85 93 -104 84 -36 197 2 261 87 33 44 40 49 75 49 71 0 119 21
175 77 70 69 96 128 97 215 l0 68 31 0 c152 0 283 185 233 329 -11 30 -9 35
24 69 40 42 61 82 71 131 5 27 2 39 -15 57 -21 22 -21 24 -5 70 32 94 12 177
-59 248 -36 37 -37 40 -39 114 -1 65 -5 85 -29 124 -38 65 -83 105 -139 126
-40 14 -48 21 -48 42 0 62 -82 178 -137 194 -12 4 -33 22 -45 39 -52 73 -115
103 -195 94 -39 -4 -44 -1 -85 41 -57 59 -117 85 -193 86 -81 0 -159 -36 -210
-97 l-38 -46 -56 51 c-31 28 -74 59 -97 69 -52 23 -138 31 -189 17z m162 -110
c26 -13 55 -38 68 -58 12 -19 30 -41 39 -49 14 -12 16 -47 16 -302 0 -245 -2
-289 -14 -289 -8 0 -45 34 -83 75 -52 58 -70 85 -75 117 -9 48 -4 58 26 58 56
0 96 68 61 103 -15 15 -50 12 -61 -4 -3 -5 -12 -9 -20 -9 -10 0 -14 14 -14 57
0 48 4 61 26 84 15 16 28 43 31 66 5 35 1 44 -30 76 -47 51 -94 52 -143 3 -27
-27 -34 -42 -34 -73 0 -42 23 -83 46 -83 12 0 14 -30 14 -185 0 -185 0 -186
23 -194 13 -5 52 -42 88 -82 35 -40 83 -94 106 -119 30 -31 43 -54 44 -75 5
-231 4 -357 -2 -361 -4 -2 -46 38 -93 88 l-86 93 0 73 c0 59 4 79 20 99 25 33
25 69 0 111 -50 81 -161 56 -177 -41 -7 -43 15 -83 53 -97 20 -8 24 -16 24
-54 l0 -45 -35 6 c-45 7 -75 -17 -75 -60 0 -54 44 -82 90 -57 16 9 38 -9 149
-122 l130 -133 1 -122 c0 -68 -3 -123 -8 -123 -4 0 -40 33 -80 73 l-72 72 0
76 c0 69 -2 77 -27 101 -46 42 -67 48 -172 48 l-101 0 0 334 0 335 29 17 c81
48 63 178 -28 205 -113 34 -200 -105 -122 -194 l29 -33 -2 -334 -2 -333 -75 2
c-62 2 -78 6 -99 26 -14 12 -35 26 -48 30 -33 10 -88 -12 -118 -48 -22 -27
-25 -38 -22 -79 6 -57 27 -84 78 -99 47 -14 104 8 128 51 l17 30 218 0 217 0
0 -65 0 -65 -71 0 c-64 0 -74 3 -95 25 -52 56 -165 18 -180 -61 -20 -108 114
-168 188 -85 27 30 30 31 120 31 l92 0 105 -103 c105 -101 106 -102 106 -149
1 -27 -4 -48 -10 -48 -5 0 -50 37 -99 82 -100 93 -83 88 -267 74 -92 -8 -109
-7 -132 8 -69 46 -146 -65 -87 -124 30 -30 85 -27 106 5 11 17 25 25 46 25
l29 0 -18 -31 c-27 -47 -80 -89 -111 -89 -115 0 -205 91 -205 208 0 43 6 61
32 97 52 72 38 98 -40 71 -94 -33 -182 -11 -236 61 -24 32 -28 45 -28 104 0
54 4 73 23 98 26 35 28 51 7 51 -24 0 -18 13 33 69 l47 52 104 6 104 6 -7 189
c-4 123 -3 188 3 188 17 0 41 56 41 94 0 46 -40 93 -87 102 -112 21 -177 -122
-88 -193 l35 -28 0 -132 0 -133 -120 0 c-115 0 -122 1 -145 25 -36 35 -35 111
1 155 26 30 72 60 94 60 6 0 5 -11 -5 -30 -32 -63 -13 -110 45 -110 44 0 70
26 70 69 0 26 -35 71 -56 71 -20 0 -50 45 -64 94 -14 52 -3 101 37 154 31 42
75 64 143 71 l55 6 -2 35 c-1 19 -5 49 -8 67 -5 24 -2 41 13 65 25 39 47 54
96 63 29 6 36 4 36 -8 0 -22 41 -65 65 -68 33 -4 61 10 73 37 17 35 15 47 -10
79 -20 25 -25 27 -72 21 l-51 -6 28 25 c33 29 82 33 147 10 55 -19 60 -19 60
5 0 48 59 118 115 138 40 15 85 8 142 -20z m522 -9 c28 -19 50 -47 63 -77 11
-26 22 -49 24 -51 1 -2 24 4 50 13 26 9 62 16 79 16 38 0 85 -34 85 -61 0 -19
-1 -19 -40 1 -45 23 -79 15 -101 -26 -10 -20 -10 -30 4 -58 30 -65 120 -54
134 15 5 29 8 30 42 24 24 -4 49 -19 73 -45 39 -41 60 -91 40 -98 -7 -2 -12
-23 -12 -46 l0 -43 64 -5 c74 -6 115 -31 152 -94 45 -76 21 -194 -45 -228 -15
-8 -34 -29 -41 -47 -19 -45 5 -83 55 -87 49 -4 68 13 62 57 -2 20 -7 44 -12
55 -7 16 -5 17 16 11 44 -13 93 -60 102 -97 11 -47 -12 -104 -48 -118 -15 -6
-76 -10 -136 -10 l-109 0 0 138 c0 136 1 139 23 149 24 11 57 68 57 98 0 48
-59 105 -110 105 -29 0 -76 -26 -94 -52 -24 -33 -20 -90 9 -131 24 -36 24 -40
18 -170 -3 -73 -3 -154 1 -180 l7 -47 90 0 89 0 60 -57 c33 -32 60 -61 60 -65
0 -5 -9 -8 -20 -8 -25 0 -25 -1 2 -53 29 -58 28 -141 -3 -196 -40 -72 -134
-99 -229 -66 -85 30 -101 10 -56 -68 32 -55 40 -104 26 -158 -25 -92 -92 -149
-177 -149 -49 0 -53 2 -97 51 -25 28 -46 55 -46 60 0 20 53 8 71 -15 11 -14
28 -27 38 -31 31 -9 71 13 85 47 34 80 -56 148 -124 94 -11 -10 -43 -10 -132
-3 -64 5 -129 6 -143 3 -15 -4 -67 -45 -116 -93 l-89 -86 0 58 0 58 102 104
102 103 101 0 c100 0 100 0 116 -29 37 -64 136 -59 179 11 56 90 -48 197 -143
147 -12 -7 -26 -18 -30 -25 -6 -10 -31 -14 -87 -14 l-80 0 0 65 0 65 220 0
220 0 10 -25 c11 -30 65 -65 100 -65 59 1 110 59 110 126 0 99 -124 150 -190
78 -21 -21 -32 -24 -102 -24 l-78 0 0 336 0 336 24 19 c77 61 41 186 -59 205
-42 7 -106 -24 -123 -61 -26 -56 -5 -129 45 -156 l23 -12 0 -334 0 -333 -102
0 c-160 0 -194 -27 -189 -145 l2 -70 -79 -82 c-44 -46 -83 -83 -86 -83 -3 0
-6 58 -6 129 l0 130 130 132 c72 72 130 137 130 142 0 6 11 0 24 -12 34 -32
71 -22 93 24 15 31 15 36 -1 59 -14 22 -27 29 -56 28 -3 0 -15 -3 -27 -7 -21
-6 -23 -3 -23 35 0 34 6 47 35 74 44 42 48 89 10 135 -33 38 -56 45 -100 31
-70 -23 -99 -107 -55 -163 16 -20 20 -40 20 -99 l0 -73 -90 -90 -90 -90 0 199
0 199 63 66 c34 37 85 92 113 124 29 31 58 57 67 57 22 0 27 44 27 221 0 127
3 159 13 159 8 0 22 18 32 39 23 51 7 103 -39 132 -101 64 -213 -80 -125 -161
28 -27 30 -33 27 -87 l-3 -58 -41 3 c-49 4 -72 -15 -54 -47 13 -24 41 -41 69
-41 18 0 21 -6 21 -50 0 -37 -4 -52 -18 -59 -9 -5 -44 -41 -77 -80 -33 -39
-63 -71 -67 -71 -5 0 -8 131 -8 291 l0 291 38 46 c20 26 43 52 51 57 80 56
146 61 210 14z m-594 -134 c0 -26 -3 -30 -29 -30 -36 0 -56 26 -36 50 8 9 24
15 39 13 22 -2 26 -8 26 -33z m550 1 c0 -40 -27 -56 -54 -32 -12 11 -21 24
-21 31 0 20 24 36 50 33 20 -2 25 -8 25 -32z m-877 -64 c4 -28 -24 -40 -45
-19 -14 13 -14 19 -3 32 18 22 44 15 48 -13z m1170 -9 c-2 -10 -10 -18 -18
-18 -8 0 -16 8 -18 18 -2 12 3 17 18 17 15 0 20 -5 18 -17z m-1115 -234 c5 -9
7 -28 3 -42 -5 -21 -12 -27 -34 -27 -49 0 -69 42 -36 75 20 19 53 16 67 -6z
m1102 -3 c18 -27 11 -52 -17 -67 -42 -23 -90 45 -56 79 20 20 56 14 73 -12z
m-1381 -155 c19 -21 13 -47 -16 -62 -37 -20 -76 39 -46 69 17 17 42 15 62 -7z
m1644 7 c7 -7 12 -22 12 -35 0 -27 -42 -42 -65 -23 -28 23 -11 70 25 70 9 0
21 -5 28 -12z m-1118 -208 c24 -46 -36 -82 -64 -38 -8 13 -6 22 8 37 24 26 42
27 56 1z m590 5 c7 -9 10 -25 6 -41 -5 -20 -12 -25 -34 -22 -28 3 -40 32 -28
64 7 18 40 18 56 -1z m680 -29 c0 -21 -21 -31 -30 -15 -5 7 -6 17 -4 21 9 14
34 9 34 -6z m-1970 -6 c0 -5 -7 -10 -15 -10 -8 0 -15 5 -15 10 0 6 7 10 15 10
8 0 15 -4 15 -10z m-166 -250 l46 -21 -22 -29 c-25 -34 -32 -32 -58 20 -30 59
-31 58 34 30z m2296 -17 c-1 -16 -7 -39 -14 -52 l-13 -24 -33 44 -32 44 39 6
c21 3 41 7 46 8 4 0 7 -11 7 -26z m-1990 -183 c15 -29 3 -59 -26 -66 -30 -8
-54 11 -54 40 0 46 59 64 80 26z m1724 4 c20 -20 20 -33 -1 -56 -23 -25 -50
-23 -69 7 -16 24 -16 27 1 45 22 24 48 26 69 4z m-1426 -216 c36 -36 -11 -96
-49 -62 -31 28 -18 74 21 74 9 0 21 -5 28 -12z m1120 0 c18 -18 14 -45 -10
-62 -37 -26 -74 7 -57 52 9 24 47 30 67 10z m-1168 -273 c0 -18 -5 -25 -20
-25 -15 0 -20 7 -20 25 0 18 5 25 20 25 15 0 20 -7 20 -25z m1180 -1 c0 -33
-33 -30 -38 4 -3 17 2 22 17 22 16 0 21 -6 21 -26z"/>
<path d="M2163 1988 c-12 -6 -27 -24 -34 -40 -24 -59 50 -111 101 -70 32 26
32 78 1 104 -26 20 -36 21 -68 6z"/>
<path d="M2762 1980 c-32 -13 -37 -36 -19 -76 20 -41 57 -53 92 -30 34 23 34
68 -1 95 -29 23 -38 24 -72 11z"/>
<path d="M3350 940 c-17 -17 -18 -24 -10 -41 15 -27 36 -34 66 -21 34 16 33
59 -2 72 -33 13 -31 13 -54 -10z"/>
<path d="M1558 939 c-21 -12 -23 -40 -6 -57 19 -19 66 -15 78 7 13 25 13 27
-6 45 -18 18 -41 20 -66 5z"/>
</g>
</svg>
